<?xml version="1.0" encoding="UTF-8" standalone="no"?>
<!DOCTYPE svg PUBLIC "-//W3C//DTD SVG 1.1//EN"
 "http://www.w3.org/Graphics/SVG/1.1/DTD/svg11.dtd">
<!-- Generated by graphviz version 2.43.0 (0)
 -->
<!-- Title: %3 Pages: 1 -->
<svg width="1033pt" height="404pt"
 viewBox="0.00 0.00 1033.32 404.00" xmlns="http://www.w3.org/2000/svg" xmlns:xlink="http://www.w3.org/1999/xlink">
<g id="graph0" class="graph" transform="scale(1 1) rotate(0) translate(4 400)">
<title>%3</title>
<polygon fill="white" stroke="transparent" points="-4,4 -4,-400 1029.32,-400 1029.32,4 -4,4"/>
<!-- [root] aws_autoscaling_group.example (expand) -->
<g id="node1" class="node">
<title>[root] aws_autoscaling_group.example (expand)</title>
<polygon fill="none" stroke="black" points="597.94,-252 351.94,-252 351.94,-216 597.94,-216 597.94,-252"/>
<text text-anchor="middle" x="474.94" y="-230.3" font-family="Times,serif" font-size="14.00">aws_autoscaling_group.example</text>
</g>
<!-- [root] aws_launch_configuration.example (expand) -->
<g id="node3" class="node">
<title>[root] aws_launch_configuration.example (expand)</title>
<polygon fill="none" stroke="black" points="586.94,-180 322.94,-180 322.94,-144 586.94,-144 586.94,-180"/>
<text text-anchor="middle" x="454.94" y="-158.3" font-family="Times,serif" font-size="14.00">aws_launch_configuration.example</text>
</g>
<!-- [root] aws_autoscaling_group.example (expand)&#45;&gt;[root] aws_launch_configuration.example (expand) -->
<g id="edge1" class="edge">
<title>[root] aws_autoscaling_group.example (expand)&#45;&gt;[root] aws_launch_configuration.example (expand)</title>
<path fill="none" stroke="black" d="M469.99,-215.7C467.76,-207.9 465.08,-198.51 462.6,-189.83"/>
<polygon fill="black" stroke="black" points="465.94,-188.76 459.82,-180.1 459.2,-190.68 465.94,-188.76"/>
</g>
<!-- [root] aws_instance.test (expand) -->
<g id="node2" class="node">
<title>[root] aws_instance.test (expand)</title>
<polygon fill="none" stroke="black" points="333.44,-252 190.44,-252 190.44,-216 333.44,-216 333.44,-252"/>
<text text-anchor="middle" x="261.94" y="-230.3" font-family="Times,serif" font-size="14.00">aws_instance.test</text>
</g>
<!-- [root] aws_security_group.instance (expand) -->
<g id="node5" class="node">
<title>[root] aws_security_group.instance (expand)</title>
<polygon fill="none" stroke="black" points="497.94,-108 275.94,-108 275.94,-72 497.94,-72 497.94,-108"/>
<text text-anchor="middle" x="386.94" y="-86.3" font-family="Times,serif" font-size="14.00">aws_security_group.instance</text>
</g>
<!-- [root] aws_instance.test (expand)&#45;&gt;[root] aws_security_group.instance (expand) -->
<g id="edge2" class="edge">
<title>[root] aws_instance.test (expand)&#45;&gt;[root] aws_security_group.instance (expand)</title>
<path fill="none" stroke="black" d="M269.31,-215.9C278.05,-196.91 294,-166.02 313.94,-144 324.09,-132.79 336.97,-122.5 349.07,-114.02"/>
<polygon fill="black" stroke="black" points="351.38,-116.69 357.7,-108.19 347.45,-110.89 351.38,-116.69"/>
</g>
<!-- [root] aws_launch_configuration.example (expand)&#45;&gt;[root] aws_security_group.instance (expand) -->
<g id="edge3" class="edge">
<title>[root] aws_launch_configuration.example (expand)&#45;&gt;[root] aws_security_group.instance (expand)</title>
<path fill="none" stroke="black" d="M438.13,-143.7C429.81,-135.14 419.63,-124.66 410.55,-115.3"/>
<polygon fill="black" stroke="black" points="413.03,-112.84 403.55,-108.1 408.01,-117.72 413.03,-112.84"/>
</g>
<!-- [root] aws_security_group.ilb (expand) -->
<g id="node4" class="node">
<title>[root] aws_security_group.ilb (expand)</title>
<polygon fill="none" stroke="black" points="706.94,-108 526.94,-108 526.94,-72 706.94,-72 706.94,-108"/>
<text text-anchor="middle" x="616.94" y="-86.3" font-family="Times,serif" font-size="14.00">aws_security_group.ilb</text>
</g>
<!-- [root] provider[&quot;registry.terraform.io/hashicorp/aws&quot;] -->
<g id="node8" class="node">
<title>[root] provider[&quot;registry.terraform.io/hashicorp/aws&quot;]</title>
<polygon fill="none" stroke="black" points="699.94,-36 374.67,-18 699.94,0 1025.2,-18 699.94,-36"/>
<text text-anchor="middle" x="699.94" y="-14.3" font-family="Times,serif" font-size="14.00">provider[&quot;registry.terraform.io/hashicorp/aws&quot;]</text>
</g>
<!-- [root] aws_security_group.ilb (expand)&#45;&gt;[root] provider[&quot;registry.terraform.io/hashicorp/aws&quot;] -->
<g id="edge4" class="edge">
<title>[root] aws_security_group.ilb (expand)&#45;&gt;[root] provider[&quot;registry.terraform.io/hashicorp/aws&quot;]</title>
<path fill="none" stroke="black" d="M637.45,-71.7C648.22,-62.62 661.54,-51.38 673.11,-41.62"/>
<polygon fill="black" stroke="black" points="675.41,-44.27 680.79,-35.14 670.89,-38.92 675.41,-44.27"/>
</g>
<!-- [root] aws_security_group.instance (expand)&#45;&gt;[root] provider[&quot;registry.terraform.io/hashicorp/aws&quot;] -->
<g id="edge5" class="edge">
<title>[root] aws_security_group.instance (expand)&#45;&gt;[root] provider[&quot;registry.terraform.io/hashicorp/aws&quot;]</title>
<path fill="none" stroke="black" d="M463.1,-71.97C513.64,-60.66 579.5,-45.93 628.94,-34.88"/>
<polygon fill="black" stroke="black" points="629.92,-38.25 638.91,-32.65 628.39,-31.41 629.92,-38.25"/>
</g>
<!-- [root] var.server_port -->
<g id="node9" class="node">
<title>[root] var.server_port</title>
<polygon fill="none" stroke="black" points="350.44,-36 231.44,-36 231.44,0 356.44,0 356.44,-30 350.44,-36"/>
<polyline fill="none" stroke="black" points="350.44,-36 350.44,-30 "/>
<polyline fill="none" stroke="black" points="356.44,-30 350.44,-30 "/>
<text text-anchor="middle" x="293.94" y="-14.3" font-family="Times,serif" font-size="14.00">var.server_port</text>
</g>
<!-- [root] aws_security_group.instance (expand)&#45;&gt;[root] var.server_port -->
<g id="edge6" class="edge">
<title>[root] aws_security_group.instance (expand)&#45;&gt;[root] var.server_port</title>
<path fill="none" stroke="black" d="M363.95,-71.7C352.12,-62.8 337.54,-51.82 324.76,-42.2"/>
<polygon fill="black" stroke="black" points="326.75,-39.32 316.66,-36.1 322.55,-44.91 326.75,-39.32"/>
</g>
<!-- [root] aws_subnet.vpc1_subnets (expand) -->
<g id="node6" class="node">
<title>[root] aws_subnet.vpc1_subnets (expand)</title>
<polygon fill="none" stroke="black" points="873.44,-252 672.44,-252 672.44,-216 873.44,-216 873.44,-252"/>
<text text-anchor="middle" x="772.94" y="-230.3" font-family="Times,serif" font-size="14.00">aws_subnet.vpc1_subnets</text>
</g>
<!-- [root] aws_vpc.vpc1 (expand) -->
<g id="node7" class="node">
<title>[root] aws_vpc.vpc1 (expand)</title>
<polygon fill="none" stroke="black" points="838.94,-108 724.94,-108 724.94,-72 838.94,-72 838.94,-108"/>
<text text-anchor="middle" x="781.94" y="-86.3" font-family="Times,serif" font-size="14.00">aws_vpc.vpc1</text>
</g>
<!-- [root] aws_subnet.vpc1_subnets (expand)&#45;&gt;[root] aws_vpc.vpc1 (expand) -->
<g id="edge7" class="edge">
<title>[root] aws_subnet.vpc1_subnets (expand)&#45;&gt;[root] aws_vpc.vpc1 (expand)</title>
<path fill="none" stroke="black" d="M774.02,-215.87C775.56,-191.67 778.37,-147.21 780.2,-118.39"/>
<polygon fill="black" stroke="black" points="783.71,-118.39 780.85,-108.19 776.72,-117.95 783.71,-118.39"/>
</g>
<!-- [root] var.subnets -->
<g id="node10" class="node">
<title>[root] var.subnets</title>
<polygon fill="none" stroke="black" points="894.44,-180 801.44,-180 801.44,-144 900.44,-144 900.44,-174 894.44,-180"/>
<polyline fill="none" stroke="black" points="894.44,-180 894.44,-174 "/>
<polyline fill="none" stroke="black" points="900.44,-174 894.44,-174 "/>
<text text-anchor="middle" x="850.94" y="-158.3" font-family="Times,serif" font-size="14.00">var.subnets</text>
</g>
<!-- [root] aws_subnet.vpc1_subnets (expand)&#45;&gt;[root] var.subnets -->
<g id="edge8" class="edge">
<title>[root] aws_subnet.vpc1_subnets (expand)&#45;&gt;[root] var.subnets</title>
<path fill="none" stroke="black" d="M792.22,-215.7C801.85,-207.05 813.66,-196.45 824.16,-187.03"/>
<polygon fill="black" stroke="black" points="826.77,-189.39 831.88,-180.1 822.1,-184.18 826.77,-189.39"/>
</g>
<!-- [root] aws_vpc.vpc1 (expand)&#45;&gt;[root] provider[&quot;registry.terraform.io/hashicorp/aws&quot;] -->
<g id="edge9" class="edge">
<title>[root] aws_vpc.vpc1 (expand)&#45;&gt;[root] provider[&quot;registry.terraform.io/hashicorp/aws&quot;]</title>
<path fill="none" stroke="black" d="M761.67,-71.7C751.13,-62.7 738.12,-51.6 726.77,-41.9"/>
<polygon fill="black" stroke="black" points="728.73,-38.98 718.85,-35.14 724.18,-44.3 728.73,-38.98"/>
</g>
<!-- [root] output.public_ip (expand) -->
<g id="node11" class="node">
<title>[root] output.public_ip (expand)</title>
<ellipse fill="none" stroke="black" cx="157.94" cy="-306" rx="157.87" ry="18"/>
<text text-anchor="middle" x="157.94" y="-302.3" font-family="Times,serif" font-size="14.00">[root] output.public_ip (expand)</text>
</g>
<!-- [root] output.public_ip (expand)&#45;&gt;[root] aws_instance.test (expand) -->
<g id="edge10" class="edge">
<title>[root] output.public_ip (expand)&#45;&gt;[root] aws_instance.test (expand)</title>
<path fill="none" stroke="black" d="M183.11,-288.05C196.68,-278.92 213.6,-267.53 228.29,-257.65"/>
<polygon fill="black" stroke="black" points="230.29,-260.52 236.63,-252.03 226.38,-254.71 230.29,-260.52"/>
</g>
<!-- [root] provider[&quot;registry.terraform.io/hashicorp/aws&quot;] (close) -->
<g id="node12" class="node">
<title>[root] provider[&quot;registry.terraform.io/hashicorp/aws&quot;] (close)</title>
<ellipse fill="none" stroke="black" cx="625.94" cy="-306" rx="291.65" ry="18"/>
<text text-anchor="middle" x="625.94" y="-302.3" font-family="Times,serif" font-size="14.00">[root] provider[&quot;registry.terraform.io/hashicorp/aws&quot;] (close)</text>
</g>
<!-- [root] provider[&quot;registry.terraform.io/hashicorp/aws&quot;] (close)&#45;&gt;[root] aws_autoscaling_group.example (expand) -->
<g id="edge11" class="edge">
<title>[root] provider[&quot;registry.terraform.io/hashicorp/aws&quot;] (close)&#45;&gt;[root] aws_autoscaling_group.example (expand)</title>
<path fill="none" stroke="black" d="M589.38,-288.05C568.76,-278.5 542.8,-266.46 520.82,-256.27"/>
<polygon fill="black" stroke="black" points="522.22,-253.06 511.68,-252.03 519.28,-259.41 522.22,-253.06"/>
</g>
<!-- [root] provider[&quot;registry.terraform.io/hashicorp/aws&quot;] (close)&#45;&gt;[root] aws_instance.test (expand) -->
<g id="edge12" class="edge">
<title>[root] provider[&quot;registry.terraform.io/hashicorp/aws&quot;] (close)&#45;&gt;[root] aws_instance.test (expand)</title>
<path fill="none" stroke="black" d="M536.94,-288.84C483.66,-279.05 414.33,-266.1 343.48,-252.09"/>
<polygon fill="black" stroke="black" points="343.96,-248.61 333.47,-250.1 342.6,-255.48 343.96,-248.61"/>
</g>
<!-- [root] provider[&quot;registry.terraform.io/hashicorp/aws&quot;] (close)&#45;&gt;[root] aws_security_group.ilb (expand) -->
<g id="edge13" class="edge">
<title>[root] provider[&quot;registry.terraform.io/hashicorp/aws&quot;] (close)&#45;&gt;[root] aws_security_group.ilb (expand)</title>
<path fill="none" stroke="black" d="M625.21,-287.85C623.66,-250.83 619.97,-163.18 618.09,-118.39"/>
<polygon fill="black" stroke="black" points="621.58,-118.08 617.66,-108.23 614.58,-118.37 621.58,-118.08"/>
</g>
<!-- [root] provider[&quot;registry.terraform.io/hashicorp/aws&quot;] (close)&#45;&gt;[root] aws_subnet.vpc1_subnets (expand) -->
<g id="edge14" class="edge">
<title>[root] provider[&quot;registry.terraform.io/hashicorp/aws&quot;] (close)&#45;&gt;[root] aws_subnet.vpc1_subnets (expand)</title>
<path fill="none" stroke="black" d="M661.52,-288.05C681.51,-278.54 706.64,-266.57 727.98,-256.41"/>
<polygon fill="black" stroke="black" points="729.65,-259.49 737.17,-252.03 726.64,-253.17 729.65,-259.49"/>
</g>
<!-- [root] root -->
<g id="node13" class="node">
<title>[root] root</title>
<ellipse fill="none" stroke="black" cx="391.94" cy="-378" rx="58.49" ry="18"/>
<text text-anchor="middle" x="391.94" y="-374.3" font-family="Times,serif" font-size="14.00">[root] root</text>
</g>
<!-- [root] root&#45;&gt;[root] output.public_ip (expand) -->
<g id="edge15" class="edge">
<title>[root] root&#45;&gt;[root] output.public_ip (expand)</title>
<path fill="none" stroke="black" d="M351.44,-364.89C315.6,-354.16 262.69,-338.34 221.25,-325.94"/>
<polygon fill="black" stroke="black" points="222.11,-322.54 211.52,-323.03 220.1,-329.25 222.11,-322.54"/>
</g>
<!-- [root] root&#45;&gt;[root] provider[&quot;registry.terraform.io/hashicorp/aws&quot;] (close) -->
<g id="edge16" class="edge">
<title>[root] root&#45;&gt;[root] provider[&quot;registry.terraform.io/hashicorp/aws&quot;] (close)</title>
<path fill="none" stroke="black" d="M432.43,-364.89C467.67,-354.34 519.4,-338.87 560.51,-326.57"/>
<polygon fill="black" stroke="black" points="561.6,-329.9 570.18,-323.68 559.59,-323.19 561.6,-329.9"/>
</g>
</g>
</svg>
